<svg width="20" height="20" viewBox="0 0 20 20" fill="none" xmlns="http://www.w3.org/2000/svg">
<path d="M10 5.30612C9.07164 5.30612 8.16413 5.58141 7.39222 6.09718C6.62032 6.61295 6.01869 7.34604 5.66342 8.20373C5.30815 9.06143 5.2152 10.0052 5.39631 10.9157C5.57743 11.8263 6.02448 12.6626 6.68093 13.3191C7.33738 13.9755 8.17375 14.4226 9.08427 14.6037C9.99479 14.7848 10.9386 14.6918 11.7963 14.3366C12.654 13.9813 13.387 13.3797 13.9028 12.6078C14.4186 11.8359 14.6939 10.9284 14.6939 10C14.6939 8.75511 14.1993 7.5612 13.3191 6.68093C12.4388 5.80065 11.2449 5.30612 10 5.30612ZM10 13.4694C9.31382 13.4694 8.64305 13.2659 8.07251 12.8847C7.50197 12.5035 7.05729 11.9616 6.7947 11.3277C6.53211 10.6937 6.46341 9.99615 6.59728 9.32316C6.73114 8.65016 7.06157 8.03197 7.54677 7.54677C8.03197 7.06157 8.65016 6.73114 9.32316 6.59728C9.99615 6.46341 10.6937 6.53211 11.3277 6.7947C11.9616 7.05729 12.5035 7.50197 12.8847 8.07251C13.2659 8.64305 13.4694 9.31382 13.4694 10C13.4667 10.9193 13.1003 11.8002 12.4503 12.4503C11.8002 13.1003 10.9193 13.4667 10 13.4694ZM14.4898 0H5.5102C4.04881 0 2.64727 0.580538 1.6139 1.6139C0.580538 2.64727 0 4.04881 0 5.5102V14.4898C0 15.9512 0.580538 17.3527 1.6139 18.3861C2.64727 19.4195 4.04881 20 5.5102 20H14.4898C15.9512 20 17.3527 19.4195 18.3861 18.3861C19.4195 17.3527 20 15.9512 20 14.4898V5.5102C20 4.04881 19.4195 2.64727 18.3861 1.6139C17.3527 0.580538 15.9512 0 14.4898 0ZM18.7755 14.4898C18.7755 15.6264 18.324 16.7165 17.5203 17.5203C16.7165 18.324 15.6264 18.7755 14.4898 18.7755H5.5102C4.37356 18.7755 3.28347 18.324 2.47975 17.5203C1.67602 16.7165 1.22449 15.6264 1.22449 14.4898V5.5102C1.22449 4.37356 1.67602 3.28347 2.47975 2.47975C3.28347 1.67602 4.37356 1.22449 5.5102 1.22449H14.4898C15.6264 1.22449 16.7165 1.67602 17.5203 2.47975C18.324 3.28347 18.7755 4.37356 18.7755 5.5102V14.4898ZM16.3265 4.69388C16.3265 4.8957 16.2667 5.09298 16.1546 5.26079C16.0424 5.42859 15.8831 5.55938 15.6966 5.63661C15.5102 5.71384 15.305 5.73405 15.1071 5.69468C14.9091 5.65531 14.7273 5.55812 14.5846 5.41542C14.4419 5.27271 14.3447 5.09089 14.3053 4.89295C14.2659 4.69501 14.2862 4.48984 14.3634 4.30338C14.4406 4.11693 14.5714 3.95756 14.7392 3.84544C14.907 3.73332 15.1043 3.67347 15.3061 3.67347C15.5768 3.67347 15.8363 3.78098 16.0277 3.97234C16.219 4.1637 16.3265 4.42325 16.3265 4.69388Z" fill="#00BAF7"/>
</svg>
