<svg width="16" height="16" viewBox="0 0 16 16" fill="none" xmlns="http://www.w3.org/2000/svg">
<path d="M8.00033 5.95841C8.76449 5.17758 9.75949 4.66675 10.917 4.66675C12.1326 4.66675 13.2984 5.14963 14.1579 6.00917C15.0174 6.86872 15.5003 8.03451 15.5003 9.25008V15.5001H13.8337V9.25008C13.8337 8.47653 13.5264 7.73467 12.9794 7.18769C12.4324 6.64071 11.6905 6.33341 10.917 6.33341C10.1434 6.33341 9.40158 6.64071 8.8546 7.18769C8.30762 7.73467 8.00033 8.47653 8.00033 9.25008V15.5001H6.33366V5.08341H8.00033V5.95841ZM2.16699 3.41675C1.83547 3.41675 1.51753 3.28505 1.28311 3.05063C1.04869 2.81621 0.916992 2.49827 0.916992 2.16675C0.916992 1.83523 1.04869 1.51729 1.28311 1.28286C1.51753 1.04844 1.83547 0.916748 2.16699 0.916748C2.49851 0.916748 2.81646 1.04844 3.05088 1.28286C3.2853 1.51729 3.41699 1.83523 3.41699 2.16675C3.41699 2.49827 3.2853 2.81621 3.05088 3.05063C2.81646 3.28505 2.49851 3.41675 2.16699 3.41675ZM1.33366 5.08341H3.00033V15.5001H1.33366V5.08341Z" fill="#00BAF7"/>
</svg>
