<svg width="30" height="30" viewBox="0 0 30 30" fill="none" xmlns="http://www.w3.org/2000/svg">
<path d="M26.25 21.25C26.25 21.9404 25.6904 22.5 25 22.5H12.5C11.8096 22.5 11.25 21.9404 11.25 21.25C11.25 20.5596 11.8096 20 12.5 20H25C25.6904 20 26.25 20.5596 26.25 21.25ZM26.25 15C26.25 15.6904 25.6904 16.25 25 16.25H5C4.30964 16.25 3.75 15.6904 3.75 15C3.75 14.3096 4.30964 13.75 5 13.75H25C25.6904 13.75 26.25 14.3096 26.25 15ZM26.25 8.75C26.25 9.44036 25.6904 10 25 10H12.5C11.8096 10 11.25 9.44036 11.25 8.75C11.25 8.05964 11.8096 7.5 12.5 7.5H25C25.6904 7.5 26.25 8.05964 26.25 8.75Z" fill="#00BAF7"/>
</svg>
