<svg width="10" height="16" viewBox="0 0 10 16" fill="none" xmlns="http://www.w3.org/2000/svg">
<path d="M9.16667 0.916711C9.16667 0.806204 9.12277 0.700224 9.04463 0.622083C8.96649 0.543943 8.86051 0.500045 8.75 0.500045H6.66667C5.6176 0.447787 4.5905 0.812871 3.80977 1.51553C3.02904 2.21818 2.55815 3.20129 2.5 4.25004V6.50004H0.416667C0.30616 6.50004 0.200179 6.54394 0.122039 6.62208C0.0438988 6.70022 0 6.8062 0 6.91671V9.08338C0 9.19388 0.0438988 9.29987 0.122039 9.37801C0.200179 9.45615 0.30616 9.50004 0.416667 9.50004H2.5V15.0834C2.5 15.1939 2.5439 15.2999 2.62204 15.378C2.70018 15.4561 2.80616 15.5 2.91667 15.5H5.41667C5.52717 15.5 5.63315 15.4561 5.71129 15.378C5.78943 15.2999 5.83333 15.1939 5.83333 15.0834V9.50004H8.01667C8.10932 9.50138 8.19978 9.47178 8.27374 9.41594C8.34769 9.3601 8.40092 9.2812 8.425 9.19171L9.025 7.02504C9.04158 6.96348 9.04381 6.89893 9.03151 6.83637C9.01922 6.77381 8.99273 6.7149 8.95409 6.66419C8.91545 6.61347 8.86569 6.5723 8.80864 6.54384C8.75158 6.51539 8.68876 6.5004 8.625 6.50004H5.83333V4.25004C5.85406 4.04378 5.95093 3.85264 6.10502 3.71396C6.25911 3.57527 6.45936 3.49901 6.66667 3.50004H8.75C8.86051 3.50004 8.96649 3.45615 9.04463 3.37801C9.12277 3.29987 9.16667 3.19388 9.16667 3.08338V0.916711Z" fill="#00BAF7"/>
</svg>
