<svg width="20" height="21" viewBox="0 0 20 21" fill="none" xmlns="http://www.w3.org/2000/svg">
<path d="M20 2.44629C19.2511 2.85454 18.4567 3.12252 17.6433 3.24131C18.4905 2.61644 19.1411 1.62695 19.4474 0.447981C18.642 1.03611 17.7608 1.45048 16.8419 1.67319C16.0934 0.691965 15.027 0.0787354 13.8468 0.0787354C11.5807 0.0787354 9.74344 2.33939 9.74344 5.12762C9.74344 5.5234 9.77977 5.9087 9.84969 6.27833C6.43953 6.0677 3.41609 4.05766 1.39227 1.00295C1.03914 1.74865 0.836797 2.61606 0.836797 3.54124C0.836797 5.29297 1.56125 6.8383 2.66219 7.74377C2.01059 7.71866 1.37332 7.5021 0.803594 7.11218C0.803359 7.13333 0.803359 7.15448 0.803359 7.17572C0.803359 9.62201 2.21773 11.6627 4.09477 12.1266C3.49054 12.3288 2.85674 12.3584 2.2418 12.2131C2.76391 14.219 4.2793 15.6787 6.07477 15.7195C4.67047 17.0736 2.90117 17.8809 0.978828 17.8809C0.647578 17.8809 0.321016 17.8569 0 17.8103C1.81586 19.2429 3.97266 20.0787 6.28984 20.0787C13.8373 20.0787 17.9644 12.3851 17.9644 5.71316C17.9644 5.49417 17.9605 5.27643 17.9525 5.05994C18.7558 4.34537 19.4492 3.46031 20 2.44629Z" fill="#00BAF7"/>
</svg>
